#!OML:ASF Y:\EmotionMaleHayes\Project 1\Capture day 1\Session 1\Male1.ASF
:FULLY-SPECIFIED
:DEGREES
1898
root 15.9694 16.7848 18.388 542.74 -53.7336 168.418
lowerback 5.53437 3.31026 -8.7677
upperback 0.890661 3.60427 -3.46711
thorax -2.50657 1.7717 1.01896
lowerneck -20.9239 -6.31482 -5.85906
upperneck 23.014 -10.0719 9.62101
head 11.8408 -4.01709 2.83331
rclavicle 3.60049e-014 -7.95139e-016
rhumerus -37.8597 9.10704 -91.3747
rradius 34.8448
rwrist 3.19162
rhand -9.37061 -31.1805
rfingers 7.12502
rthumb 16.5897 -60.4914
lclavicle 3.60049e-014 -7.95139e-016
lhumerus -40.3144 -0.870112 80.3367
lradius 28.2628
lwrist -6.48389
lhand -14.5019 -19.1342
lfingers 7.12502
lthumb 11.6452 10.5222
rfemur 9.20348 5.07567 8.62932
rtibia 49.4723
rfoot -5.05327 -18.0179
rtoes 46.9383
lfemur 1.43568 0.412842 -20.9748
ltibia 14.7492
lfoot -9.89227 7.06582
ltoes -10.2801
1899
root 15.8853 16.7947 18.394 542.919 -52.8017 168.155
lowerback 5.41367 3.37014 -9.48733
upperback 1.09273 3.67696 -3.20945
thorax -2.2958 1.80106 1.68569
lowerneck -20.5298 -6.54476 -6.06396
upperneck 22.3993 -10.2475 9.58384
head 11.5541 -4.13948 2.82449
rclavicle -9.76281e-014 4.77083e-014
rhumerus -38.0321 8.73641 -90.3956
rradius 34.8574
rwrist 2.80205
rhand -9.23673 -31.6615
rfingers 7.12502
rthumb 16.7186 -60.9616
lclavicle -9.76281e-014 4.77083e-014
lhumerus -39.6718 -0.846091 80.5616
lradius 28.5312
lwrist -6.91907
lhand -14.3137 -19.0482
lfingers 7.12502
lthumb 11.8266 10.5978
rfemur 7.95966 4.67085 8.12406
rtibia 50.1645
rfoot -6.07664 -17.573
rtoes 40.8278
lfemur 1.90124 1.07621 -21.3039
ltibia 14.4378
lfoot -10.4134 7.44176
ltoes -22.9682
1900
root 15.7824 16.7965 18.3947 542.769 -51.8936 167.839
lowerback 5.52539 3.44124 -10.1382
upperback 1.37165 3.74299 -2.9412
thorax -2.13168 1.82204 2.31606
lowerneck -20.0665 -6.88155 -6.60623
upperneck 21.7281 -10.5481 9.82154
head 11.2869 -4.31817 2.95277
rclavicle 5.8716e-014 2.14687e-014
rhumerus -38.2921 8.50803 -89.3917
rradius 34.7447
rwrist 2.49565
rhand -9.30156 -31.5036
rfingers 7.12502
rthumb 16.6561 -60.8089
lclavicle 5.8716e-014 2.14687e-014
lhumerus -39.0478 -1.47473 81.1421
lradius 28.5225
lwrist -6.93628
lhand -14.7599 -19.1406
lfingers 7.12502
lthumb 11.3963 10.5297
rfemur 7.3668 4.67536 7.6293
rtibia 51.1498
rfoot -7.55927 -16.7353
rtoes 43.9739
lfemur 3.08936 1.50647 -21.7817
ltibia 13.7545
lfoot -10.4134 7.44176
ltoes -22.9682
1901
root 15.7041 16.8103 18.396 543.144 -51.1673 167.348
lowerback 5.64393 3.41789 -10.7559
upperback 1.37707 3.64859 -2.9394
thorax -2.21975 1.77655 2.65682
lowerneck -21.518 -6.35917 -4.89728
upperneck 23.2408 -10.112 8.46697
head 11.9153 -4.06262 2.22728
rclavicle -3.24764e-014 7.95139e-014
rhumerus -38.8031 8.19953 -88.8935
rradius 34.7606
rwrist 1.90656
rhand -9.88536 -31.6033
rfingers 7.12502
rthumb 16.094 -60.955
lclavicle -3.24764e-014 7.95139e-014
lhumerus -38.5775 -2.83671 81.5246
lradius 28.1776
lwrist -7.23666
lhand -16.1859 -19.8852
lfingers 7.12502
lthumb 10.0208 9.85626
rfemur 6.18069 4.22448 6.95704
rtibia 52.0189
rfoot -8.28754 -15.9762
rtoes 43.9322
lfemur 3.51799 1.82708 -22.3644
ltibia 13.4803
lfoot -10.4134 7.44176
ltoes -22.9682
1902
root 15.6192 16.8162 18.3971 542.673 -50.3715 167.63
lowerback 5.86487 3.376 -10.2804
upperback 1.50045 3.5761 -3.23525
thorax -2.15884 1.72334 2.08996
lowerneck -20.38 -6.72535 -5.36861
upperneck 22.1936 -10.7203 9.5037
head 11.4463 -4.32348 2.59691
rclavicle 2.84014e-014 6.36111e-015
rhumerus -39.1139 7.36234 -88.9481
rradius 34.8338
rwrist 1.4414
rhand -10.4602 -32.4086
rfingers 7.12502
rthumb 15.5404 -61.8042
lclavicle 2.84014e-014 6.36111e-015
lhumerus -37.978 -4.21046 81.1409
lradius 28.1848
lwrist -7.17944
lhand -16.9008 -20.079
lfingers 7.12502
lthumb 9.33103 9.69445
rfemur 5.31589 3.79908 6.87732
rtibia 52.5754
rfoot -8.38103 -15.1874
rtoes 42.4747
lfemur 4.20722 2.40023 -22.2959
ltibia 13.3188
lfoot -10.4134 7.44176
ltoes -22.9682
1903
root 15.5306 16.8216 18.3973 542.095 -49.6705 168.051
lowerback 6.02304 3.30144 -9.75411
upperback 1.68846 3.48595 -3.4337
thorax -1.99815 1.65915 1.60425
lowerneck -19.9134 -6.90829 -5.13482
upperneck 21.7959 -11.0801 9.64736
head 11.236 -4.4832 2.55617
rclavicle -9.13416e-014 3.18055e-014
rhumerus -39.1327 6.16799 -88.6501
rradius 34.4734
rwrist 1.3767
rhand -10.937 -32.3276
rfingers 7.12502
rthumb 15.0812 -61.7582
lclavicle -9.13416e-014 3.18055e-014
lhumerus -37.2652 -5.0188 80.64
lradius 28.7401
lwrist -6.38592
lhand -15.6788 -19.1446
lfingers 7.12502
lthumb 10.51 10.5726
rfemur 4.47068 3.29235 6.96287
rtibia 53.1326
rfoot -8.14594 -14.5083
rtoes 41.0174
lfemur 5.01246 2.66459 -22.2014
ltibia 12.9704
lfoot -10.4134 7.44176
ltoes -22.9682
1904
root 15.4462 16.8334 18.3951 542.258 -49.0766 167.816
lowerback 6.22527 3.26253 -10.0322
upperback 1.65718 3.36817 -3.57047
thorax -2.14042 1.60074 1.61323
lowerneck -20.4455 -7.09623 -4.46184
upperneck 22.1815 -11.5174 9.30478
head 11.4547 -4.64108 2.23201
rclavicle 4.98204e-015 -1.19271e-014
rhumerus -39.4249 4.93145 -88.0511
rradius 34.0154
rwrist 1.29736
rhand -11.3934 -31.9349
rfingers 7.12502
rthumb 14.6415 -61.398
lclavicle 4.98204e-015 -1.19271e-014
lhumerus -36.9216 -5.81203 80.3676
lradius 29.3124
lwrist -5.99375
lhand -14.7499 -18.5029
lfingers 7.12502
lthumb 11.4059 11.1669
rfemur 3.33141 2.55737 6.56543
rtibia 53.7204
rfoot -7.82268 -14.1274
rtoes 39.0349
lfemur 5.56048 2.7377 -22.6986
ltibia 12.5256
lfoot -10.4134 7.44176
ltoes -22.9682
